<?xml version="1.0" encoding="utf-8"?>
<!-- Generator: Adobe Illustrator 16.0.0, SVG Export Plug-In . SVG Version: 6.00 Build 0)  -->
<!DOCTYPE svg PUBLIC "-//W3C//DTD SVG 1.1//EN" "http://www.w3.org/Graphics/SVG/1.1/DTD/svg11.dtd">
<svg version="1.1" id="zhishi" xmlns="http://www.w3.org/2000/svg" xmlns:xlink="http://www.w3.org/1999/xlink" x="0px" y="0px"
	 width="128px" height="128px" viewBox="0 0 128 128" enable-background="new 0 0 128 128" xml:space="preserve">
<path fill="#FBC92A" d="M105.824,0c3.372,0,6.492,0.871,9.358,2.614c2.867,1.743,5.144,4.047,6.83,6.914
	c1.687,2.868,2.53,6.043,2.53,9.528v89.887c0,3.485-0.844,6.661-2.53,9.528s-3.964,5.172-6.83,6.914s-5.986,2.613-9.358,2.613
	H61.639c0-1.349-0.956-2.529-2.867-3.541c-1.912-1.012-4.188-1.518-6.83-1.518s-4.918,0.506-6.83,1.518s-2.868,2.192-2.868,3.541
	H22.175c-3.372,0-6.492-0.871-9.36-2.613c-2.867-1.742-5.144-4.047-6.83-6.914c-1.686-2.866-2.529-6.043-2.529-9.528V19.055
	C3.569,15.57,4.44,12.394,6.07,9.527c1.63-2.867,3.878-5.171,6.745-6.914C15.683,0.871,18.803,0,22.175,0h83.647H105.824z"/>
<path fill="#FFEA85" d="M105.824,0c3.372,0,6.492,0.871,9.358,2.614c2.867,1.743,5.144,4.047,6.83,6.914
	c1.687,2.868,2.53,6.043,2.53,9.528v35.246c-4.271,0.45-7.758,1.35-10.455,2.699c-2.699,1.349-4.048,2.867-4.048,4.553
	c0,1.687,1.349,3.204,4.048,4.553c2.697,1.349,6.184,2.191,10.455,2.529v5.902c0,3.485-0.844,6.662-2.53,9.529
	s-3.964,5.143-6.83,6.83c-2.866,1.687-5.986,2.529-9.358,2.529H22.176c-3.373,0-6.493-0.843-9.36-2.529
	c-2.868-1.688-5.145-3.963-6.83-6.83c-1.686-2.867-2.529-6.044-2.529-9.529V19.054c0.112-3.485,0.984-6.661,2.614-9.527
	s3.878-5.171,6.745-6.914c2.867-1.742,5.987-2.614,9.36-2.614h83.648V0z"/>
<path fill="#FBC92A" d="M32.632,93.429c0,1.798,0.843,3.456,2.529,4.976c1.687,1.518,4.02,2.727,6.999,3.625
	c2.98,0.9,6.24,1.35,9.781,1.35c3.542,0,6.774-0.449,9.697-1.35c2.924-0.898,5.256-2.107,6.999-3.625
	c1.742-1.52,2.614-3.149,2.614-4.892c0-1.743-0.872-3.373-2.614-4.892c-1.743-1.518-4.075-2.727-6.999-3.625
	c-2.923-0.898-6.156-1.349-9.697-1.349c-3.541,0-6.801,0.45-9.781,1.349c-2.979,0.899-5.312,2.107-6.999,3.625
	C33.476,90.14,32.632,91.742,32.632,93.429L32.632,93.429z"/>
<path fill="#F4B828" d="M18.129,113.16c0,2.023,0.702,3.709,2.107,5.059c1.406,1.35,3.092,2.023,5.06,2.023
	c1.967,0,3.682-0.674,5.144-2.023c1.462-1.35,2.192-3.008,2.192-4.975c0-1.968-0.73-3.654-2.192-5.061
	c-1.461-1.406-3.176-2.108-5.144-2.108c-1.968,0-3.654,0.702-5.06,2.108c-1.405,1.406-2.107,3.064-2.107,4.975V113.16z"/>
<path fill="#F4B828" d="M56.749,113.16c0,2.023,1.181,3.709,3.542,5.059s5.2,2.023,8.517,2.023s6.184-0.674,8.6-2.023
	s3.625-3.008,3.625-4.975c0-1.968-1.209-3.654-3.625-5.061s-5.283-2.108-8.6-2.108s-6.156,0.702-8.517,2.108
	s-3.542,3.064-3.542,4.975V113.16z"/>
<path fill="#FBC92A" d="M87.947,58.181c0.899-0.899,1.995-1.32,3.287-1.264c1.293,0.056,2.361,0.562,3.205,1.518
	c0.843,0.956,1.264,2.081,1.264,3.374c0,1.292-0.506,2.389-1.518,3.287c-5.059,4.947-10.961,8.292-17.707,10.035
	c-6.746,1.742-13.491,1.742-20.237,0c-6.746-1.743-12.705-5.088-17.876-10.035c-0.899-0.898-1.376-1.995-1.432-3.287
	c-0.057-1.293,0.365-2.418,1.265-3.374c0.899-0.956,1.995-1.462,3.288-1.518c1.292-0.057,2.389,0.365,3.289,1.264
	c3.935,3.823,8.516,6.409,13.744,7.758c5.228,1.349,10.428,1.349,15.6,0C79.289,64.59,83.898,62.004,87.947,58.181L87.947,58.181z"
	/>
<path fill="#FBC92A" d="M98.066,23.779h0.842c1.912,0,3.57,0.703,4.977,2.109c1.406,1.406,2.053,3.063,1.939,4.974v9.445
	c0,2.023-0.676,3.738-2.024,5.144c-1.349,1.405-2.979,2.107-4.892,2.107h-0.842c-2.024-0.113-3.711-0.843-5.061-2.192
	c-1.349-1.35-2.023-3.036-2.023-5.059v-9.445c0-1.911,0.703-3.569,2.109-4.974C94.497,24.481,96.155,23.779,98.066,23.779z"/>
<path fill="#FBC92A" d="M33.813,23.779h0.844c1.911,0,3.569,0.703,4.975,2.109c1.406,1.406,2.052,3.063,1.938,4.974v9.445
	c0,2.023-0.674,3.738-2.023,5.144c-1.349,1.405-2.979,2.107-4.89,2.107h-0.844c-2.023-0.113-3.709-0.843-5.059-2.192
	c-1.349-1.35-2.024-3.036-2.024-5.059v-9.445c0-1.911,0.703-3.569,2.107-4.974C30.243,24.481,31.902,23.779,33.813,23.779z"/>
</svg>
