<?xml version="1.0" encoding="utf-8"?>
<!-- Generator: Adobe Illustrator 16.0.0, SVG Export Plug-In . SVG Version: 6.00 Build 0)  -->
<!DOCTYPE svg PUBLIC "-//W3C//DTD SVG 1.1//EN" "http://www.w3.org/Graphics/SVG/1.1/DTD/svg11.dtd">
<svg version="1.1" id="read" xmlns="http://www.w3.org/2000/svg" xmlns:xlink="http://www.w3.org/1999/xlink" x="0px" y="0px"
	 width="128px" height="128px" viewBox="0 0 128 128" enable-background="new 0 0 128 128" xml:space="preserve">
<path fill="#54E2E2" d="M110.585,0.01H17.587c-2.771-0.115-5.166,0.723-7.186,2.513c-2.02,1.789-3.088,4.07-3.204,6.841v109.277
	c0.115,2.654,1.154,4.905,3.118,6.752c1.962,1.847,4.329,2.713,7.1,2.598h92.997c2.771,0.115,5.138-0.751,7.101-2.598
	c1.962-1.847,3.06-4.098,3.29-6.752V9.364c-0.23-2.656-1.328-4.908-3.29-6.755c-1.963-1.848-4.329-2.714-7.101-2.599H110.585z"/>
<path fill="#23ADE5" d="M27.459,93.008h73.082c1.27,0,2.338-0.434,3.204-1.299c0.866-0.866,1.299-1.934,1.299-3.204
	s-0.433-2.367-1.299-3.291c-0.866-0.923-1.935-1.386-3.204-1.386H27.458c-1.154,0-2.193,0.463-3.116,1.386
	c-0.924,0.924-1.386,2.021-1.386,3.291s0.462,2.338,1.386,3.204C25.266,92.574,26.305,93.008,27.459,93.008L27.459,93.008z"/>
<path fill="#23ADE5" d="M100.541,102.359H27.459c-1.154,0-2.193,0.432-3.117,1.299c-0.924,0.865-1.386,1.934-1.386,3.203
	s0.462,2.367,1.386,3.29c0.923,0.923,1.962,1.385,3.117,1.385h73.082c1.27,0,2.338-0.462,3.204-1.385s1.299-2.021,1.299-3.29
	s-0.433-2.338-1.299-3.203C102.879,102.791,101.811,102.359,100.541,102.359z"/>
<path fill="#666666" d="M22.956,16.462L22.956,16.462z"/>
<path fill="#23ADE5" d="M36.811,16.462h54.378c9.236,0,13.854,4.618,13.854,13.854V57.16c0,9.236-4.618,13.854-13.854,13.854H36.811
	c-9.236,0-13.855-4.617-13.855-13.854V30.316C22.956,21.081,27.575,16.462,36.811,16.462z"/>
<path fill="#666666" d="M45.99,37.936L45.99,37.936z"/>
<path fill="#2EC3E5" d="M37.504,37.936c0,1.617,0.375,3.089,1.125,4.417c0.75,1.328,1.79,2.367,3.117,3.118
	c1.328,0.75,2.742,1.126,4.243,1.126c1.501,0,2.916-0.375,4.244-1.126c1.328-0.751,2.367-1.79,3.118-3.118
	c0.75-1.328,1.125-2.8,1.125-4.417c0-2.308-0.837-4.299-2.511-5.974c-1.674-1.674-3.666-2.511-5.975-2.511
	c-2.309,0-4.3,0.837-5.974,2.511C38.341,33.637,37.504,35.628,37.504,37.936z"/>
<path fill="#2EC3E5" d="M40.967,71.014l20.781-24.938c1.617-1.848,3.609-2.771,5.975-2.771s4.358,0.923,5.974,2.771l20.955,24.938
	H40.967z"/>
</svg>
