<?xml version="1.0" encoding="utf-8"?>
<!-- Generator: Adobe Illustrator 16.0.0, SVG Export Plug-In . SVG Version: 6.00 Build 0)  -->
<!DOCTYPE svg PUBLIC "-//W3C//DTD SVG 1.1//EN" "http://www.w3.org/Graphics/SVG/1.1/DTD/svg11.dtd">
<svg version="1.1" id="anime" xmlns="http://www.w3.org/2000/svg" xmlns:xlink="http://www.w3.org/1999/xlink" x="0px" y="0px"
	 width="128px" height="128px" viewBox="0 0 128 128" enable-background="new 0 0 128 128" xml:space="preserve">
<path fill="#FB813A" d="M76.196,41.835l-1.901-1.268L98.054,7.939c0.845-1.161,1.136-2.428,0.871-3.801
	c-0.265-1.373-0.95-2.455-2.06-3.248c-1.108-0.792-2.35-1.056-3.722-0.792s-2.429,0.924-3.167,1.98L65.584,35.341l-38.014-23.6
	c-1.162-0.739-2.402-0.95-3.722-0.634c-1.32,0.317-2.35,1.056-3.089,2.218s-0.95,2.402-0.632,3.722
	c0.317,1.32,1.057,2.35,2.217,3.089L59.882,43.42l-3.483,4.91c-0.528,0.739-0.846,1.558-0.952,2.455
	c-0.105,0.897,0.027,1.742,0.396,2.535c0.37,0.792,0.925,1.452,1.664,1.98c0.739,0.528,1.558,0.846,2.455,0.952
	c0.897,0.105,1.743-0.026,2.535-0.396c0.792-0.37,1.451-0.925,1.979-1.664l3.959-5.544l2.693,1.425
	c0.738,0.528,1.557,0.845,2.455,0.951c0.897,0.105,1.742-0.054,2.533-0.477c0.793-0.422,1.427-1.029,1.901-1.821
	c0.476-0.792,0.713-1.636,0.713-2.534s-0.237-1.742-0.713-2.534c-0.475-0.792-1.082-1.398-1.821-1.821L76.196,41.835z"/>
<path fill="#666666" d="M103.915,119.605L103.915,119.605z"/>
<path fill="#FB813A" d="M95.361,119.605c0,1.479,0.396,2.877,1.188,4.197s1.821,2.35,3.089,3.088
	c1.267,0.74,2.665,1.109,4.197,1.109s2.958-0.369,4.277-1.109c1.32-0.738,2.35-1.768,3.089-3.088s1.109-2.746,1.109-4.276
	s-0.37-2.931-1.109-4.198s-1.769-2.297-3.089-3.088c-1.319-0.792-2.745-1.188-4.277-1.188s-2.931,0.396-4.197,1.188
	c-1.268,0.791-2.298,1.82-3.089,3.088S95.361,118.021,95.361,119.605z"/>
<path fill="#FB813A" d="M24.244,111.053c-2.323,0.105-4.303,0.977-5.94,2.613s-2.455,3.617-2.455,5.94s0.818,4.303,2.455,5.938
	c1.637,1.637,3.617,2.455,5.94,2.455s4.33-0.818,6.02-2.455c1.689-1.637,2.534-3.616,2.534-5.938c0-2.323-0.844-4.329-2.534-6.019
	C28.574,111.898,26.567,111.054,24.244,111.053L24.244,111.053z"/>
<path fill="#666666" d="M5.236,34.549L5.236,34.549z"/>
<path fill="#FDDE80" d="M19.967,34.549h88.224c9.715,0,14.572,4.91,14.572,14.731v57.179c0,9.82-4.857,14.73-14.572,14.73H19.967
	c-9.821,0-14.731-4.91-14.731-14.73V49.28C5.236,39.459,10.146,34.549,19.967,34.549z"/>
<path fill="#666666" d="M65.268,75.889L65.268,75.889z"/>
<path fill="#FFFFFF" d="M44.993,75.889c0,3.695,0.924,7.102,2.772,10.217c1.848,3.115,4.33,5.569,7.445,7.365
	c3.115,1.795,6.494,2.691,10.138,2.691c3.643,0,7.022-0.896,10.137-2.691c3.115-1.796,5.597-4.25,7.444-7.365
	c1.849-3.115,2.772-6.521,2.772-10.217s-0.924-7.102-2.772-10.217c-1.848-3.114-4.329-5.569-7.444-7.364
	c-3.114-1.795-6.494-2.693-10.137-2.693c-3.644,0-7.022,0.898-10.138,2.693c-3.115,1.795-5.597,4.25-7.445,7.364
	C45.917,68.787,44.993,72.193,44.993,75.889z"/>
<path fill="#FB813A" d="M58.456,71.453c0-2.111,0.66-3.563,1.98-4.355c1.32-0.792,2.878-0.713,4.673,0.238l7.92,4.594
	c0.844,0.211,1.504,0.686,1.979,1.426c0.476,0.738,0.712,1.53,0.712,2.375c0,0.844-0.236,1.635-0.712,2.375
	c-0.476,0.738-1.136,1.215-1.979,1.426l-7.92,4.592c-1.795,1.057-3.353,1.217-4.673,0.477c-1.32-0.738-1.98-2.164-1.98-4.277V71.453
	L58.456,71.453z"/>
</svg>
