<?xml version="1.0" encoding="utf-8"?>
<!-- Generator: Adobe Illustrator 16.0.0, SVG Export Plug-In . SVG Version: 6.00 Build 0)  -->
<!DOCTYPE svg PUBLIC "-//W3C//DTD SVG 1.1//EN" "http://www.w3.org/Graphics/SVG/1.1/DTD/svg11.dtd">
<svg version="1.1" id="blackroom" xmlns="http://www.w3.org/2000/svg" xmlns:xlink="http://www.w3.org/1999/xlink" x="0px" y="0px"
	 width="128px" height="128px" viewBox="0 0 128 128" enable-background="new 0 0 128 128" xml:space="preserve">
<path fill="#F99E4A" d="M4.63,62.101c-0.745,0.107-1.49-0.053-2.235-0.479c-1.064-0.639-1.783-1.571-2.155-2.795
	c-0.372-1.224-0.292-2.422,0.239-3.593L21.393,17.56c0.638-1.065,1.569-1.757,2.793-2.076c1.224-0.319,2.368-0.159,3.433,0.48
	c1.065,0.638,1.757,1.569,2.076,2.793c0.319,1.224,0.16,2.369-0.479,3.433L8.462,59.866c-0.426,0.638-0.958,1.17-1.596,1.596
	s-1.383,0.639-2.235,0.639H4.63z"/>
<path fill="#F99E4A" d="M43.104,62.101c-1.703-0.106-3.034-0.852-3.991-2.235L18.04,22.19c-0.426-1.064-0.453-2.155-0.08-3.272
	s1.064-2.022,2.075-2.714c1.011-0.691,2.128-0.851,3.353-0.479s2.102,1.144,2.634,2.315l20.914,37.516
	c0.638,1.17,0.771,2.367,0.399,3.591c-0.373,1.224-1.145,2.049-2.315,2.475c-0.105,0-0.398,0.08-0.877,0.239
	C43.662,62.021,43.316,62.101,43.104,62.101L43.104,62.101z"/>
<path fill="#F99E4A" d="M84.93,62.101c-0.852,0.107-1.65-0.053-2.395-0.479c-0.957-0.533-1.623-1.384-1.995-2.555
	s-0.293-2.341,0.239-3.511l20.754-37.516c0.639-1.064,1.543-1.756,2.713-2.075c1.171-0.32,2.289-0.213,3.353,0.319
	c1.064,0.533,1.782,1.384,2.155,2.555s0.293,2.288-0.24,3.353L88.76,59.868c-0.426,0.638-0.957,1.17-1.596,1.596
	s-1.384,0.639-2.235,0.639L84.93,62.101z"/>
<path fill="#F99E4A" d="M123.564,62.101c-1.704-0.106-3.088-0.852-4.152-2.235L98.658,22.19c-0.638-1.064-0.771-2.182-0.398-3.353
	c0.373-1.171,1.092-2.075,2.155-2.714c1.063-0.638,2.235-0.771,3.513-0.398s2.129,1.144,2.554,2.315l20.913,37.675
	c0.639,1.064,0.771,2.208,0.399,3.433s-1.145,2.049-2.315,2.475c-0.105,0-0.398,0.08-0.877,0.239
	C124.122,62.021,123.776,62.101,123.564,62.101z"/>
<path fill="#FFD043" d="M110.473,16.284L89.561,7.982c-1.598-0.532-3.246-0.852-4.949-0.958H43.104
	C41.4,7.13,39.698,7.396,37.995,7.822l-20.754,8.461c-0.745,0.319-1.277,0.825-1.596,1.516c-0.319,0.692-0.399,1.41-0.239,2.155
	c0.159,0.745,0.532,1.357,1.118,1.836c0.585,0.479,1.251,0.772,1.996,0.878h90.996c0.746-0.106,1.384-0.425,1.916-0.958
	c0.532-0.532,0.852-1.197,0.959-1.995c0.105-0.798-0.027-1.517-0.399-2.156s-0.878-1.118-1.518-1.438L110.473,16.284L110.473,16.284
	z"/>
<path fill="#FFD043" d="M55.715,22.669v83.015c0,2.342,0.798,4.338,2.395,5.986c1.597,1.649,3.565,2.474,5.906,2.474
	c2.341,0,4.31-0.824,5.906-2.474c1.598-1.648,2.396-3.645,2.396-5.986V22.669H55.715L55.715,22.669z"/>
<path fill="#FFD043" d="M71.998,6.865c-0.318-1.916-1.196-3.539-2.633-4.869c-1.438-1.33-3.193-1.995-5.268-1.995
	c-2.075,0-3.884,0.718-5.428,2.155s-2.421,3.166-2.634,5.189H72.32L72,6.866L71.998,6.865z"/>
<path fill="#F99E4A" d="M102.971,117.816H25.064c-1.171,0-2.262-0.293-3.272-0.877c-1.011-0.586-1.809-1.384-2.394-2.395
	c-0.586-1.011-0.905-2.074-0.958-3.192c-0.054-1.118,0.186-2.208,0.719-3.272l8.78-19.478c0.638-1.17,1.49-2.128,2.555-2.872
	c1.064-0.746,2.234-1.172,3.511-1.277H93.71c1.384-0.107,2.636,0.238,3.753,1.037c1.117,0.798,1.889,1.836,2.313,3.112l8.781,19.796
	c0.638,0.958,0.958,2.021,0.958,3.193c0,1.17-0.293,2.234-0.878,3.191c-0.585,0.959-1.384,1.704-2.394,2.235
	c-1.012,0.532-2.102,0.745-3.273,0.64V117.816L102.971,117.816z"/>
<path fill="#FFD043" d="M126.117,56.514c0.426,0.107,0.771,0.293,1.037,0.559c0.268,0.266,0.4,0.559,0.4,0.878
	c-0.318,4.044-1.57,7.742-3.752,11.095s-5.029,6.014-8.541,7.982s-7.29,2.954-11.334,2.954c-4.045,0-7.822-0.985-11.336-2.954
	c-3.511-1.969-6.357-4.63-8.541-7.982c-2.182-3.353-3.432-7.051-3.751-11.095c-0.105-0.426,0.001-0.772,0.32-1.038
	c0.319-0.266,0.691-0.399,1.117-0.399H126.117z"/>
<path fill="#FFD043" d="M45.978,56.514c0.319,0.107,0.612,0.293,0.877,0.559c0.266,0.266,0.452,0.559,0.559,0.878
	c-0.319,4.15-1.569,7.929-3.751,11.335s-5.028,6.146-8.54,8.223c-3.513,2.074-7.344,3.112-11.495,3.112s-7.982-1.011-11.495-3.034
	c-3.512-2.021-6.358-4.762-8.541-8.221C1.41,65.906,0.212,62.101,0,57.95c0-0.426,0.133-0.772,0.399-1.038
	c0.266-0.266,0.611-0.399,1.036-0.399h44.541H45.978z"/>
</svg>
