<?xml version="1.0" encoding="utf-8"?>
<!-- Generator: Adobe Illustrator 16.0.0, SVG Export Plug-In . SVG Version: 6.00 Build 0)  -->
<!DOCTYPE svg PUBLIC "-//W3C//DTD SVG 1.1//EN" "http://www.w3.org/Graphics/SVG/1.1/DTD/svg11.dtd">
<svg version="1.1" id="musicplus" xmlns="http://www.w3.org/2000/svg" xmlns:xlink="http://www.w3.org/1999/xlink" x="0px" y="0px"
	 width="128px" height="128px" viewBox="0 0 128 128" enable-background="new 0 0 128 128" xml:space="preserve">
<path fill="#666666" d="M0,12.766L0,12.766z"/>
<path fill="#3DA9D3" d="M4.334,12.718h119.332c2.889,0,4.334,1.445,4.334,4.334v85.333c0,2.777-1.445,4.166-4.334,4.166H4.333
	c-2.889,0-4.333-1.389-4.333-4.166V17.052C0,14.163,1.445,12.718,4.334,12.718L4.334,12.718z"/>
<path fill="#7DD3E0" d="M4.334,12.766h25.5V106.6h-25.5c-1.223,0-2.25-0.416-3.084-1.25C0.417,104.517,0,103.545,0,102.434V17.1
	c0-1.223,0.417-2.25,1.25-3.084C2.083,13.183,3.111,12.766,4.334,12.766z"/>
<path fill="#7DD3E0" d="M123.666,12.766h-25.5V106.6h25.5c1.223,0,2.25-0.416,3.084-1.25c0.834-0.833,1.25-1.805,1.25-2.916V17.1
	c0-1.223-0.416-2.25-1.25-3.084C125.916,13.183,124.889,12.766,123.666,12.766z"/>
<path fill="#666666" d="M106.666,23.434L106.666,23.434z"/>
<path fill="#3DA9D3" d="M109.166,23.434h7.668c1.777,0,2.666,0.833,2.666,2.5v3.5c0,1.667-0.889,2.5-2.666,2.5h-7.668
	c-1.666,0-2.5-0.833-2.5-2.5v-3.5C106.666,24.267,107.5,23.434,109.166,23.434z"/>
<path fill="#666666" d="M106.666,44.766L106.666,44.766z"/>
<path fill="#3DA9D3" d="M109.166,44.766h7.668c1.777,0,2.666,0.833,2.666,2.5v3.5c0,1.667-0.889,2.5-2.666,2.5h-7.668
	c-1.666,0-2.5-0.833-2.5-2.5v-3.5C106.666,45.6,107.5,44.766,109.166,44.766z"/>
<path fill="#666666" d="M106.666,66.1L106.666,66.1z"/>
<path fill="#3DA9D3" d="M109.166,66.1h7.668c1.777,0,2.666,0.834,2.666,2.5v3.5c0,1.667-0.889,2.5-2.666,2.5h-7.668
	c-1.666,0-2.5-0.833-2.5-2.5v-3.5C106.666,66.934,107.5,66.1,109.166,66.1z"/>
<path fill="#666666" d="M106.666,87.434L106.666,87.434z"/>
<path fill="#3DA9D3" d="M109.166,87.434h7.668c1.777,0,2.666,0.834,2.666,2.5v3.5c0,1.667-0.889,2.5-2.666,2.5h-7.668
	c-1.666,0-2.5-0.833-2.5-2.5v-3.5C106.666,88.268,107.5,87.434,109.166,87.434z"/>
<path fill="#FFD469" d="M74.666,0.266c1.445-0.444,2.611-0.333,3.5,0.334c0.889,0.667,1.805,1.611,2.75,2.833
	c0.944,1.222,2.111,2.666,3.5,4.333c1.389,1.667,3.25,3.167,5.582,4.5c2.111,1.223,3.945,2.112,5.5,2.667l4.334,1.333
	c1.334,0.333,2.611,0.833,3.833,1.5l1.667,1c1.223,0.889,2.111,1.667,2.666,2.334l0.167,0.166c0.778,1.112,1.334,1.945,1.667,2.5
	c0.445,0.889,0.723,1.723,0.833,2.5c0.333,1.889,0.333,3.612,0,5.167c-0.333,1.555-0.861,2.916-1.584,4.083
	c-0.722,1.167-1.333,1.75-1.833,1.75s-0.916-0.277-1.25-0.833c-0.332-0.556-0.61-1.611-0.833-3.167
	c-0.222-2.667-1.027-4.527-2.417-5.583c-1.389-1.055-3.583-1.666-6.583-1.833c-3-0.167-5.722-1.028-8.167-2.583
	c-2.11-1.333-4.055-2.833-5.833-4.5c-1.444-1.222-2.583-1.555-3.417-1c-0.832,0.556-1.25,1.333-1.25,2.333l-1.5,56
	c0.111,1.666-0.166,3.583-0.833,5.75c-0.667,2.166-1.806,4.25-3.417,6.25c-1.61,2-3.805,3.833-6.582,5.5
	c-2.778,1.666-6.167,2.889-10.167,3.667s-7.639,0.585-10.917-0.583c-3.277-1.166-5.777-2.86-7.5-5.083
	c-1.722-2.223-2.527-4.862-2.416-7.917c0.111-3.056,1.472-6.083,4.083-9.083s5.416-5.222,8.416-6.667
	c2.667-1.332,5.556-2.332,8.667-3c2.444-0.444,4.889-0.611,7.333-0.5c2.112,0.222,3.723,0.444,4.834,0.667l1.333-56.834
	c0-2,0.528-3.722,1.584-5.166s2.472-2.389,4.25-2.834L74.666,0.266z"/>
<path fill="#FFD469" d="M101.5,48.266c0,0.112,0,0.278,0,0.5V55.6l7-1.167c0.666-0.111,1.25,0.055,1.75,0.5
	c0.5,0.444,0.75,1,0.75,1.667v2.5c0,0.444-0.166,0.861-0.5,1.25s-0.777,0.639-1.334,0.75l-7.666,1.333v7.5
	c0,0.555-0.139,1.027-0.418,1.416c-0.277,0.39-0.693,0.64-1.25,0.75l-2.5,0.5c-0.666,0.223-1.277,0.112-1.834-0.332
	c-0.555-0.445-0.833-1.001-0.833-1.668v-7l-6.833,1.166c-0.666,0-1.25-0.193-1.75-0.582c-0.5-0.389-0.75-0.917-0.75-1.583v-2.5
	c0-0.556,0.167-1.028,0.5-1.417c0.334-0.389,0.777-0.639,1.333-0.75l7.5-1.167v-7.333c0-0.556,0.167-1.028,0.5-1.417
	c0.333-0.388,0.723-0.638,1.167-0.75l2.666-0.666c0.557-0.111,1.084,0,1.584,0.333c0.5,0.333,0.806,0.778,0.916,1.333H101.5z"/>
<path fill="#666666" d="M8.5,23.434L8.5,23.434z"/>
<path fill="#3DA9D3" d="M11.166,23.434h7.668c1.667,0,2.5,0.833,2.5,2.5v3.5c0,1.667-0.833,2.5-2.5,2.5h-7.668
	c-1.777,0-2.666-0.833-2.666-2.5v-3.5C8.5,24.267,9.389,23.434,11.166,23.434z"/>
<path fill="#666666" d="M8.5,44.766L8.5,44.766z"/>
<path fill="#3DA9D3" d="M11.166,44.766h7.668c1.667,0,2.5,0.833,2.5,2.5v3.5c0,1.667-0.833,2.5-2.5,2.5h-7.668
	c-1.777,0-2.666-0.833-2.666-2.5v-3.5C8.5,45.6,9.389,44.766,11.166,44.766z"/>
<path fill="#666666" d="M8.5,66.1L8.5,66.1z"/>
<path fill="#3DA9D3" d="M11.166,66.1h7.668c1.667,0,2.5,0.834,2.5,2.5v3.5c0,1.667-0.833,2.5-2.5,2.5h-7.668
	c-1.777,0-2.666-0.833-2.666-2.5v-3.5C8.5,66.934,9.389,66.1,11.166,66.1z"/>
<path fill="#666666" d="M8.5,87.434L8.5,87.434z"/>
<path fill="#3DA9D3" d="M11.166,87.434h7.668c1.667,0,2.5,0.834,2.5,2.5v3.5c0,1.667-0.833,2.5-2.5,2.5h-7.668
	c-1.777,0-2.666-0.833-2.666-2.5v-3.5C8.5,88.268,9.389,87.434,11.166,87.434z"/>
</svg>
