<?xml version="1.0" encoding="utf-8"?>
<!-- Generator: Adobe Illustrator 16.0.0, SVG Export Plug-In . SVG Version: 6.00 Build 0)  -->
<!DOCTYPE svg PUBLIC "-//W3C//DTD SVG 1.1//EN" "http://www.w3.org/Graphics/SVG/1.1/DTD/svg11.dtd">
<svg version="1.1" id="guochuang" xmlns="http://www.w3.org/2000/svg" xmlns:xlink="http://www.w3.org/1999/xlink" x="0px" y="0px"
	 width="128px" height="128px" viewBox="0 0 128 128" enable-background="new 0 0 128 128" xml:space="preserve">
<path fill="#58D598" d="M122.08,32.482c-3.967-4.181-7.987-6.861-12.062-8.04c-4.716-1.5-9.326-0.965-13.829,1.607
	c0.965-4.824,0.697-9.541-0.803-14.151C93.885,7.29,91.42,3.323,87.988,0l-1.285,1.93c-1.072,1.715-1.983,3.483-2.734,5.306
	c-1.072,2.572-1.875,5.199-2.411,7.878c-0.536,3.324-0.536,6.54,0,9.649c0.536,3.645,1.876,7.183,4.021,10.614l-1.127,1.125
	c-2.145,2.358-3.752,4.074-4.824,5.146c-1.286,1.393-1.661,2.921-1.125,4.583c0.537,1.662,1.636,2.787,3.298,3.376
	c1.661,0.589,3.136,0.188,4.421-1.205l11.097-11.256c3.108-3.001,6.218-4.181,9.326-3.539c2.681,0.537,5.628,2.413,8.844,5.629
	c1.395,1.287,2.896,1.662,4.503,1.125s2.707-1.662,3.296-3.376C123.875,35.27,123.473,33.769,122.08,32.482z"/>
<path fill="#FF5C7A" d="M95.064,36.181c-2.895-3.001-6.218-5.279-9.969-6.833c-3.752-1.555-7.691-2.333-11.819-2.333
	c-4.127,0-8.066,0.777-11.819,2.333c-3.751,1.555-7.075,3.806-9.97,6.753c-2.894,2.948-5.092,6.298-6.594,10.05
	c-5.36,0-10.532,1.045-15.517,3.135c-4.985,2.091-9.354,5.066-13.106,8.925c-5.145,5.252-8.629,11.363-10.451,18.332
	c-1.823,6.968-1.823,13.963,0,20.984c1.822,7.021,5.306,13.159,10.451,18.412c3.752,3.859,8.121,6.834,13.106,8.924
	C34.361,126.955,39.534,128,44.894,128c5.36,0,10.506-1.045,15.438-3.137c4.932-2.09,9.273-5.064,13.025-8.924
	c3.751-3.859,6.673-8.281,8.764-13.266s3.136-10.158,3.136-15.518c3.646-1.608,6.916-3.859,9.811-6.754
	c3.966-3.967,6.646-8.656,8.04-14.071c1.394-5.413,1.394-10.8,0-16.16c-1.395-5.36-4.074-10.023-8.04-13.99H95.064z"/>
<path fill="#F14767" d="M64.351,110.794c-2.895,2.787-6.218,4.932-9.97,6.433c-3.752,1.5-7.638,2.225-11.658,2.171
	s-7.879-0.911-11.577-2.573c-3.699-1.662-6.941-3.939-9.729-6.834c-3.859-4.074-6.405-8.764-7.639-14.07
	c-1.232-5.307-1.125-10.586,0.321-15.839s4.153-9.862,8.12-13.829l-0.643,2.252c-0.429,1.822-0.751,3.699-0.965,5.629
	c-0.321,2.787-0.321,5.467,0,8.039c0.429,3.324,1.232,6.433,2.412,9.326c1.5,3.432,3.591,6.541,6.272,9.327
	c4.395,4.932,9.755,8.309,16.08,10.131C51.701,112.779,58.026,112.725,64.351,110.794L64.351,110.794z"/>
</svg>
