<?xml version="1.0" encoding="utf-8"?>
<!-- Generator: Adobe Illustrator 16.0.0, SVG Export Plug-In . SVG Version: 6.00 Build 0)  -->
<!DOCTYPE svg PUBLIC "-//W3C//DTD SVG 1.1//EN" "http://www.w3.org/Graphics/SVG/1.1/DTD/svg11.dtd">
<svg version="1.1" id="ic_partition_Comic" xmlns="http://www.w3.org/2000/svg" xmlns:xlink="http://www.w3.org/1999/xlink" x="0px"
	 y="0px" width="128px" height="128px" viewBox="0 0 128 128" enable-background="new 0 0 128 128" xml:space="preserve">
<path fill="#FDDE80" d="M94.737,103.479H19.504c-2.64,0-4.893-0.91-6.759-2.73c-1.866-1.821-2.799-4.051-2.799-6.69v-50.93
	c0-2.64,0.933-4.893,2.799-6.759s4.119-2.799,6.759-2.799h75.233c2.64,0,4.892,0.933,6.759,2.799
	c1.866,1.866,2.799,4.119,2.799,6.759v50.93c0,2.548-0.933,4.755-2.799,6.621C99.631,102.545,97.377,103.479,94.737,103.479z"/>
<path fill="#9796ED" d="M93.099,35.071c1.548-0.546,2.8-1.479,3.755-2.799c0.956-1.32,1.365-2.776,1.229-4.369
	c-0.137-1.593-0.432-3.073-0.887-4.438c-1.821-5.462-5.621-9.786-11.401-12.971c-5.78-3.186-12.722-4.961-20.823-5.325
	C56.597,4.896,48.063,6.171,39.37,8.993c-8.692,2.821-16.361,6.827-23.006,12.016C9.991,26.015,5.394,31.521,2.572,37.53
	c-2.821,6.008-3.322,11.697-1.501,17.068c0.455,1.456,1.069,2.844,1.844,4.164c0.774,1.32,1.935,2.253,3.482,2.799
	c1.547,0.547,3.141,0.592,4.779,0.136L93.1,35.07L93.099,35.071z"/>
<path fill="#7B78EB" d="M34.524,5.306l1.501,4.643c0.364,1.093,1.047,1.889,2.049,2.389c1.001,0.5,2.024,0.568,3.071,0.205
	c1.047-0.364,1.82-1.024,2.321-1.98s0.569-1.979,0.205-3.071L42.17,2.849c-0.364-1.092-1.047-1.889-2.049-2.39
	c-1.001-0.5-2.026-0.592-3.072-0.273c-1.047,0.318-1.82,0.979-2.32,1.98S34.161,4.214,34.524,5.306L34.524,5.306z"/>
<path fill="#FFAF66" d="M56.779,85.865c4.733,0,8.898-1.548,12.494-4.643c3.596-3.096,5.712-6.964,6.349-11.606
	c0.183-0.728,0.023-1.388-0.478-1.979s-1.115-0.889-1.844-0.889H40.257c-0.728,0-1.32,0.297-1.775,0.889s-0.637,1.252-0.546,1.979
	c0.638,4.643,2.754,8.511,6.349,11.606C47.881,84.317,52.045,85.865,56.779,85.865z"/>
<path fill="#9796ED" d="M92.416,81.359l-11.742-5.6l0.41,1.367c0.363,1,0.818,2.047,1.365,3.139c0.91,1.457,1.91,2.822,3.004,4.097
	c1.456,1.548,3.094,2.913,4.914,4.097v0.273c-0.545,4.277-0.227,8.306,0.957,12.084c1.184,3.777,3.072,6.918,5.666,9.421
	s5.574,3.981,8.942,4.438s6.622-0.181,9.763-1.911c3.14-1.729,5.779-4.277,7.92-7.646c2.139-3.367,3.504-7.168,4.096-11.4
	s0.273-8.238-0.956-12.017s-3.118-6.918-5.666-9.421c-2.548-2.504-5.507-3.982-8.875-4.438c-4.097-0.547-7.942,0.455-11.538,3.004
	C97.081,73.395,94.328,76.898,92.416,81.359z"/>
<path fill="#C5C2FF" d="M113.033,81.495l-2.73,13.518c-0.092,0.454-0.363,0.683-0.818,0.683h-2.458
	c-0.273,0-0.501-0.092-0.685-0.273c-0.182-0.182-0.271-0.408-0.271-0.682l2.047-13.518c0.092-0.547,0.365-0.82,0.82-0.82h3.276
	c0.273,0,0.501,0.114,0.683,0.343C113.078,80.973,113.125,81.223,113.033,81.495L113.033,81.495z"/>
<path fill="#C5C2FF" d="M109.893,100.064l-0.408,2.184c-0.092,0.547-0.365,0.82-0.82,0.82h-2.867c-0.273,0-0.5-0.113-0.684-0.341
	c-0.182-0.228-0.271-0.478-0.271-0.751l0.41-2.186c0.09-0.545,0.363-0.818,0.818-0.818h3.004c0.273,0,0.501,0.113,0.684,0.342
	C109.939,99.541,109.984,99.791,109.893,100.064z"/>
</svg>
