<?xml version="1.0" encoding="utf-8"?>
<!-- Generator: Adobe Illustrator 16.0.0, SVG Export Plug-In . SVG Version: 6.00 Build 0)  -->
<!DOCTYPE svg PUBLIC "-//W3C//DTD SVG 1.1//EN" "http://www.w3.org/Graphics/SVG/1.1/DTD/svg11.dtd">
<svg version="1.1" id="tuiguang" xmlns="http://www.w3.org/2000/svg" xmlns:xlink="http://www.w3.org/1999/xlink" x="0px" y="0px"
	 width="128px" height="128px" viewBox="0 0 128 128" enable-background="new 0 0 128 128" xml:space="preserve">
<path fill="#FFD778" d="M63.861,80.381c-0.37,3.055-1.411,5.809-3.124,8.262c-1.712,2.453-3.887,4.396-6.525,5.831
	c-2.637,1.435-5.529,2.151-8.676,2.151c-3.333,0-6.41-0.833-9.232-2.498c-2.822-1.666-5.067-3.911-6.734-6.734
	c-1.667-2.823-2.5-5.901-2.5-9.234V66.081l-16.242-6.386l0,0c0,1.481-0.533,2.754-1.598,3.819c-1.064,1.064-2.336,1.596-3.817,1.596
	s-2.753-0.531-3.817-1.596c-1.064-1.065-1.597-2.338-1.597-3.819V35.816c0-1.481,0.532-2.753,1.597-3.818
	c1.064-1.064,2.336-1.596,3.817-1.596s2.753,0.532,3.817,1.596c1.065,1.064,1.598,2.337,1.598,3.818l0,0l69.414-27.21V5.413
	c0-1.573,0.532-2.869,1.597-3.888c1.064-1.018,2.336-1.526,3.816-1.526c1.481,0,2.754,0.509,3.818,1.526s1.596,2.313,1.596,3.888
	v84.686c0,1.481-0.531,2.753-1.596,3.817s-2.337,1.597-3.818,1.597c-1.48,0-2.752-0.532-3.816-1.597s-1.597-2.336-1.597-3.817
	v-3.193L63.86,80.38L63.861,80.381z"/>
<path fill="#FFFDFA" d="M38.039,70.248v7.912c0,2.129,0.741,3.934,2.221,5.415c1.481,1.48,3.263,2.222,5.345,2.222
	s3.864-0.741,5.345-2.222c1.48-1.481,2.221-3.286,2.221-5.415v-1.943L38.039,70.248z"/>
<path fill="#FB813A" d="M105.232,42.342h17.354c1.48,0,2.754,0.532,3.818,1.597c1.063,1.065,1.596,2.338,1.596,3.818l0,0
	c0,1.481-0.532,2.753-1.596,3.818c-1.064,1.064-2.338,1.596-3.818,1.596h-17.354c-1.48,0-2.754-0.532-3.817-1.596
	c-1.065-1.064-1.598-2.337-1.598-3.818l0,0c0-1.48,0.532-2.753,1.598-3.818C102.479,42.875,103.752,42.342,105.232,42.342z"/>
<path fill="#FB813A" d="M104.676,60.39l15.133,8.747c1.296,0.74,2.129,1.828,2.499,3.262c0.37,1.436,0.186,2.801-0.556,4.097l0,0
	c-0.739,1.296-1.827,2.151-3.262,2.567s-2.799,0.209-4.096-0.625L99.263,69.83c-1.296-0.74-2.129-1.828-2.499-3.263
	s-0.186-2.8,0.555-4.096v-0.139c0.741-1.296,1.829-2.129,3.264-2.499c1.436-0.37,2.801-0.185,4.094,0.555V60.39z"/>
<path fill="#FB813A" d="M99.263,25.684l15.132-8.746c1.297-0.741,2.661-0.926,4.096-0.555c1.435,0.37,2.522,1.25,3.262,2.638l0,0
	c0.741,1.295,0.926,2.66,0.556,4.094c-0.37,1.435-1.203,2.523-2.499,3.264l-15.133,8.746c-1.295,0.74-2.659,0.902-4.094,0.485
	c-1.434-0.417-2.521-1.273-3.264-2.569l0,0c-0.74-1.296-0.925-2.661-0.555-4.095C97.134,27.51,97.967,26.423,99.263,25.684z"/>
</svg>
