<?xml version="1.0" encoding="utf-8"?>
<!-- Generator: Adobe Illustrator 16.0.0, SVG Export Plug-In . SVG Version: 6.00 Build 0)  -->
<!DOCTYPE svg PUBLIC "-//W3C//DTD SVG 1.1//EN" "http://www.w3.org/Graphics/SVG/1.1/DTD/svg11.dtd">
<svg version="1.1" id="music" xmlns="http://www.w3.org/2000/svg" xmlns:xlink="http://www.w3.org/1999/xlink" x="0px" y="0px"
	 width="128px" height="128px" viewBox="0 0 128 128" enable-background="new 0 0 128 128" xml:space="preserve">
<path fill="#45C7DD" d="M127.571,57.402c0-10.395-2.627-20.047-7.882-28.958c-5.025-8.682-11.881-15.537-20.563-20.563
	C90.217,2.627,80.621,0,70.34,0H57.66C47.265,0,37.669,2.627,28.873,7.882c-8.682,5.026-15.536,11.88-20.563,20.563
	c-5.254,8.91-7.881,18.563-7.881,28.958v53.634c0,0.915,0.314,1.686,0.942,2.313s1.342,0.941,2.142,0.941h7.197
	c1.257,4.342,3.027,7.654,5.312,9.939c2.513,2.513,5.826,3.77,9.938,3.77h16.792c1.713,0,3.198-0.6,4.455-1.799
	s1.885-2.656,1.885-4.37l0.343-48.835c0-1.713-0.628-3.198-1.885-4.455c-1.256-1.256-2.742-1.885-4.455-1.885H25.96
	c-3.084,0-5.997,0.742-8.739,2.228v-12.68c0-7.426,1.856-14.309,5.569-20.648c3.712-6.34,8.739-11.366,15.079-15.079
	c6.34-3.712,13.223-5.568,20.647-5.568h11.653c7.425,0,14.308,1.856,20.647,5.568c6.34,3.713,11.366,8.739,15.078,15.079
	c3.714,6.34,5.57,13.223,5.57,20.648v12.851c-2.855-1.6-5.94-2.398-9.254-2.398H85.076c-1.828,0-3.342,0.629-4.541,1.885
	c-1.199,1.257-1.799,2.742-1.799,4.455v48.835c0,1.714,0.629,3.171,1.885,4.37C81.878,127.4,83.363,128,85.076,128h16.793
	c4.112,0,7.482-1.257,10.109-3.77c2.17-2.285,3.884-5.598,5.141-9.939h7.197c0.913,0,1.656-0.313,2.228-0.941
	s0.857-1.398,0.857-2.313L127.571,57.402L127.571,57.402z"/>
<path fill="#666666" d="M87.133,119.775L87.133,119.775z"/>
<path fill="#FF5C7A" d="M87.133,114.291V80.706c0.113-3.769,1.999-5.653,5.654-5.653h0.172c3.77,0,5.653,1.885,5.653,5.653
	l-0.171,33.585c0,3.656-1.828,5.484-5.482,5.484h-0.172C89.018,119.775,87.133,117.947,87.133,114.291z"/>
<path fill="#666666" d="M29.044,119.775L29.044,119.775z"/>
<path fill="#FF5C7A" d="M29.044,114.291l0.171-33.585c0-3.769,1.828-5.653,5.484-5.653h0.171c3.77,0,5.655,1.885,5.655,5.653
	l-0.171,33.585c0,3.656-1.828,5.484-5.483,5.484h-0.171C30.929,119.775,29.044,117.947,29.044,114.291z"/>
</svg>
