<?xml version="1.0" encoding="utf-8"?>
<!-- Generator: Adobe Illustrator 16.0.0, SVG Export Plug-In . SVG Version: 6.00 Build 0)  -->
<!DOCTYPE svg PUBLIC "-//W3C//DTD SVG 1.1//EN" "http://www.w3.org/Graphics/SVG/1.1/DTD/svg11.dtd">
<svg version="1.1" id="dance" xmlns="http://www.w3.org/2000/svg" xmlns:xlink="http://www.w3.org/1999/xlink" x="0px" y="0px"
	 width="128px" height="128px" viewBox="0 0 128 128" enable-background="new 0 0 128 128" xml:space="preserve">
<path fill="#FC6B8A" d="M127.43,43.76c-3.326-8.743-8.195-16.416-14.609-23.021c-6.414-6.604-13.85-11.711-22.308-15.322
	S73.193,0.001,63.929,0.001c-9.265,0-18.126,1.805-26.583,5.416S21.452,14.136,15.038,20.74C8.624,27.344,3.753,35.018,0.428,43.76
	L64,74.12l-13.541,6.558c1.521,2.185,3.492,3.919,5.915,5.202c2.423,1.282,5.012,1.924,7.768,1.924c2.755,0,5.322-0.642,7.698-1.924
	c2.375-1.282,4.37-3.017,5.986-5.202L63.999,74.12L127.43,43.76L127.43,43.76z"/>
<path fill="#FFFFFF" d="M64,74.12l29.791-14.254c-2.375-6.082-6.271-10.999-11.688-14.752s-11.427-5.63-18.031-5.63
	c-6.604,0-12.615,1.876-18.031,5.63s-9.313,8.671-11.688,14.752L64,74.12z"/>
<polygon fill="#F14767" points="48.749,77.684 126.005,40.766 128,44.9 50.744,81.817 "/>
<polygon fill="#F14767" points="86.094,48.321 83.385,46.04 67.279,65.425 72.98,40.766 69.701,39.911 64,64.57 58.156,39.911 
	54.735,40.766 60.579,65.425 44.473,46.04 41.906,48.321 57.729,67.422 1.995,40.766 0,44.9 77.113,81.817 79.109,77.541 
	66.566,71.697 "/>
</svg>
