<?xml version="1.0" encoding="utf-8"?>
<!-- Generator: Adobe Illustrator 16.0.0, SVG Export Plug-In . SVG Version: 6.00 Build 0)  -->
<!DOCTYPE svg PUBLIC "-//W3C//DTD SVG 1.1//EN" "http://www.w3.org/Graphics/SVG/1.1/DTD/svg11.dtd">
<svg version="1.1" id="douga" xmlns="http://www.w3.org/2000/svg" xmlns:xlink="http://www.w3.org/1999/xlink" x="0px" y="0px"
	 width="128px" height="128px" viewBox="0 0 128 128" enable-background="new 0 0 128 128" xml:space="preserve">
<path fill="#7B78EB" d="M19.728,0h88.545c3.581,0,6.884,0.865,9.91,2.594s5.403,4.106,7.132,7.131
	c1.729,3.026,2.594,6.329,2.594,9.91v88.544c0,3.458-0.865,6.699-2.594,9.725c-1.73,3.025-4.107,5.434-7.132,7.225
	c-3.026,1.791-6.329,2.686-9.91,2.686H19.728c-3.458,0-6.699-0.895-9.724-2.686c-3.026-1.791-5.435-4.199-7.225-7.225
	c-1.791-3.025-2.687-6.267-2.687-9.725V19.635c0-3.458,0.896-6.699,2.687-9.725c1.791-3.025,4.199-5.434,7.225-7.225
	c3.025-1.791,6.266-2.687,9.724-2.687V0z"/>
<path fill="#9796ED" d="M64,66.314v18.34c3.088-1.359,6.206-1.42,9.355-0.186c3.148,1.234,5.434,3.396,6.854,6.484
	c1.42,3.087,1.512,6.205,0.277,9.354s-3.428,5.434-6.576,6.854c-3.149,1.42-6.391,1.389-9.725-0.094v20.748H19.728
	c-3.458,0-6.699-0.865-9.724-2.594c-3.026-1.73-5.434-4.107-7.225-7.133s-2.687-6.328-2.687-9.909V63.906h25.563
	c-2.099,1.853-3.21,4.137-3.333,6.854s0.71,5.063,2.5,7.039c1.791,1.976,4.044,3.057,6.761,3.241s5.063-0.618,7.04-2.409
	c1.976-1.791,3.056-4.045,3.241-6.761c0.185-2.717-0.648-5.063-2.5-7.039l-0.741-0.926H64V56.31c-0.864,0.123-1.667,0.123-2.408,0
	c-4.693,0-8.521-1.883-11.485-5.65c-2.963-3.767-4.445-8.428-4.445-13.985c0-5.927,1.111-10.62,3.335-14.079
	c2.717-3.952,6.916-5.927,12.596-5.927h2.408V-0.002h44.272c3.458,0,6.699,0.864,9.725,2.594c3.025,1.729,5.434,4.106,7.225,7.131
	c1.791,3.026,2.686,6.329,2.686,9.91v46.68h-22.413c1.853-2.223,2.716-4.785,2.593-7.688c-0.123-2.902-1.266-5.34-3.427-7.316
	c-2.161-1.976-4.692-2.902-7.594-2.779c-2.902,0.124-5.311,1.235-7.226,3.335c-1.914,2.1-2.871,4.508-2.871,7.225
	c0,2.717,0.927,5.063,2.779,7.039H64.001v0.186H64z"/>
<path fill="#6A68C6" d="M64,66.314v18.34l2.408-0.74c3.334-0.742,6.484-0.156,9.448,1.758s4.784,4.539,5.464,7.875
	c0.679,3.334,0,6.451-2.037,9.354c-2.038,2.902-4.725,4.663-8.06,5.28c-0.493,0.123-1.265,0.185-2.315,0.185
	c-1.049,0-2.438-0.309-4.167-0.927l-0.556-0.185v20.747h-2.779v-24.637l3.52,1.48c2.471,1.112,4.971,1.174,7.503,0.188
	c2.532-0.988,4.354-2.749,5.465-5.281c1.112-2.531,1.143-5.063,0.093-7.594c-1.051-2.532-2.841-4.323-5.373-5.373
	c-2.531-1.051-5.094-1.082-7.688-0.094l-3.52,1.668V66.502H43.254c1.358,3.086,1.42,6.204,0.185,9.354
	c-1.235,3.148-3.396,5.402-6.484,6.761s-6.206,1.45-9.354,0.278c-3.148-1.174-5.433-3.365-6.854-6.577
	c-1.421-3.21-1.391-6.483,0.091-9.817H0.092v-2.594H25.47c-1.976,1.853-3.057,4.137-3.242,6.854
	c-0.185,2.717,0.618,5.063,2.409,7.039c1.79,1.976,4.043,3.057,6.761,3.241c2.717,0.185,5.063-0.618,7.039-2.409
	c1.976-1.791,3.056-4.045,3.241-6.761c0.185-2.717-0.586-5.063-2.315-7.038l-0.926-0.927H64v-7.41h-2.408
	c-4.693,0-8.521-1.883-11.485-5.65c-2.963-3.766-4.445-8.428-4.445-13.985c0-6.051,1.112-10.805,3.335-14.264
	c2.717-3.952,6.916-5.927,12.596-5.927h2.408V-0.002h2.407v19.635h-4.814c-9.139,0-13.709,5.804-13.709,17.413
	c0,4.94,1.297,9.046,3.89,12.319s5.866,4.909,9.819,4.909c0.617,0.124,1.296,0.124,2.038,0l2.777-0.37v10.002h19.08
	c-1.234-3.334-1.142-6.637,0.279-9.91c1.42-3.272,3.828-5.557,7.224-6.854c3.396-1.296,6.729-1.204,10.003,0.278
	c3.271,1.481,5.525,3.889,6.761,7.224c1.235,3.087,1.235,6.175,0,9.262h18.153v2.408h-22.413c1.976-2.099,2.901-4.6,2.777-7.501
	c-0.124-2.901-1.265-5.34-3.427-7.316c-2.16-1.976-4.691-2.902-7.594-2.779c-2.902,0.123-5.311,1.204-7.223,3.242
	c-1.914,2.038-2.871,4.446-2.871,7.225c0,2.778,0.926,5.156,2.777,7.131H64.002H64z"/>
<path fill="#FDDE80" d="M51.589,97.436c-2.099,1.234-4.322,1.543-6.667,0.926c-2.347-0.617-4.138-1.977-5.373-4.075
	c-0.741-1.481-1.111-2.964-1.111-4.444V41.679c0-2.47,0.833-4.539,2.5-6.206c1.667-1.667,3.735-2.5,6.205-2.5
	c1.728,0,3.271,0.37,4.63,1.111l41.124,24.638c2.1,1.234,3.457,3.024,4.074,5.371c0.618,2.347,0.309,4.57-0.926,6.669
	c-0.864,1.234-1.914,2.284-3.148,3.148L51.587,97.436H51.589z"/>
</svg>
